<mxfile host="app.diagrams.net" modified="2023-11-20T04:10:31.033Z" agent="Mozilla/5.0 (Macintosh; Intel Mac OS X 10_15_7) AppleWebKit/537.36 (KHTML, like Gecko) Chrome/119.0.0.0 Safari/537.36" etag="C4AkORmD6SLzp7m87mHZ" version="22.1.3" type="github">
  <diagram name="Page-1" id="IMkoVH9IdIQ8E-rrdVeo">
    <mxGraphModel dx="974" dy="686" grid="1" gridSize="10" guides="1" tooltips="1" connect="1" arrows="1" fold="1" page="1" pageScale="1" pageWidth="850" pageHeight="1100" math="0" shadow="0">
      <root>
        <mxCell id="0" />
        <mxCell id="1" parent="0" />
        <mxCell id="nkVPSl8-scFeGB_LwQ4a-5" value="" style="rounded=0;whiteSpace=wrap;html=1;" parent="1" vertex="1">
          <mxGeometry x="120" y="160" width="320" height="40" as="geometry" />
        </mxCell>
        <mxCell id="nkVPSl8-scFeGB_LwQ4a-8" value="double b;" style="rounded=0;whiteSpace=wrap;html=1;fillStyle=hatch;fillColor=#B3B3B3;" parent="1" vertex="1">
          <mxGeometry x="120" y="200" width="320" height="40" as="geometry" />
        </mxCell>
        <mxCell id="nkVPSl8-scFeGB_LwQ4a-9" value="" style="rounded=0;whiteSpace=wrap;html=1;" parent="1" vertex="1">
          <mxGeometry x="120" y="240" width="320" height="40" as="geometry" />
        </mxCell>
        <mxCell id="nkVPSl8-scFeGB_LwQ4a-10" value="&lt;span style=&quot;font-size: 16px;&quot;&gt;TestInner&lt;/span&gt;" style="text;html=1;strokeColor=none;fillColor=none;align=center;verticalAlign=middle;whiteSpace=wrap;rounded=0;" parent="1" vertex="1">
          <mxGeometry x="240" y="120" width="80" height="40" as="geometry" />
        </mxCell>
        <mxCell id="nkVPSl8-scFeGB_LwQ4a-11" value="0" style="text;html=1;strokeColor=none;fillColor=none;align=center;verticalAlign=middle;whiteSpace=wrap;rounded=0;" parent="1" vertex="1">
          <mxGeometry x="80" y="160" width="40" height="40" as="geometry" />
        </mxCell>
        <mxCell id="nkVPSl8-scFeGB_LwQ4a-12" value="8" style="text;html=1;strokeColor=none;fillColor=none;align=center;verticalAlign=middle;whiteSpace=wrap;rounded=0;" parent="1" vertex="1">
          <mxGeometry x="80" y="200" width="40" height="40" as="geometry" />
        </mxCell>
        <mxCell id="nkVPSl8-scFeGB_LwQ4a-13" value="16" style="text;html=1;strokeColor=none;fillColor=none;align=center;verticalAlign=middle;whiteSpace=wrap;rounded=0;" parent="1" vertex="1">
          <mxGeometry x="80" y="240" width="40" height="40" as="geometry" />
        </mxCell>
        <mxCell id="nkVPSl8-scFeGB_LwQ4a-14" value="int a;" style="rounded=0;whiteSpace=wrap;html=1;fillStyle=hatch;fillColor=#B3B3B3;" parent="1" vertex="1">
          <mxGeometry x="120" y="160" width="160" height="40" as="geometry" />
        </mxCell>
        <mxCell id="nkVPSl8-scFeGB_LwQ4a-15" value="char c;" style="rounded=0;whiteSpace=wrap;html=1;fillStyle=hatch;fillColor=#B3B3B3;" parent="1" vertex="1">
          <mxGeometry x="120" y="240" width="40" height="40" as="geometry" />
        </mxCell>
        <mxCell id="nkVPSl8-scFeGB_LwQ4a-16" value="" style="rounded=0;whiteSpace=wrap;html=1;" parent="1" vertex="1">
          <mxGeometry x="120" y="400" width="320" height="40" as="geometry" />
        </mxCell>
        <mxCell id="nkVPSl8-scFeGB_LwQ4a-18" value="" style="rounded=0;whiteSpace=wrap;html=1;fillColor=#fff2cc;strokeColor=#d6b656;" parent="1" vertex="1">
          <mxGeometry x="120" y="520" width="320" height="40" as="geometry" />
        </mxCell>
        <mxCell id="nkVPSl8-scFeGB_LwQ4a-19" value="&lt;font style=&quot;font-size: 16px;&quot;&gt;TestOuter&lt;/font&gt;" style="text;html=1;strokeColor=none;fillColor=none;align=center;verticalAlign=middle;whiteSpace=wrap;rounded=0;" parent="1" vertex="1">
          <mxGeometry x="240" y="360" width="80" height="40" as="geometry" />
        </mxCell>
        <mxCell id="nkVPSl8-scFeGB_LwQ4a-20" value="0" style="text;html=1;strokeColor=none;fillColor=none;align=center;verticalAlign=middle;whiteSpace=wrap;rounded=0;" parent="1" vertex="1">
          <mxGeometry x="80" y="400" width="40" height="40" as="geometry" />
        </mxCell>
        <mxCell id="nkVPSl8-scFeGB_LwQ4a-21" value="8" style="text;html=1;strokeColor=none;fillColor=none;align=center;verticalAlign=middle;whiteSpace=wrap;rounded=0;" parent="1" vertex="1">
          <mxGeometry x="80" y="440" width="40" height="40" as="geometry" />
        </mxCell>
        <mxCell id="nkVPSl8-scFeGB_LwQ4a-22" value="16" style="text;html=1;strokeColor=none;fillColor=none;align=center;verticalAlign=middle;whiteSpace=wrap;rounded=0;" parent="1" vertex="1">
          <mxGeometry x="80" y="480" width="40" height="40" as="geometry" />
        </mxCell>
        <mxCell id="nkVPSl8-scFeGB_LwQ4a-23" value="int a;" style="rounded=0;whiteSpace=wrap;html=1;fillStyle=hatch;fillColor=#B3B3B3;" parent="1" vertex="1">
          <mxGeometry x="120" y="400" width="160" height="40" as="geometry" />
        </mxCell>
        <mxCell id="nkVPSl8-scFeGB_LwQ4a-24" value="&lt;font color=&quot;#808080&quot;&gt;char c;&lt;/font&gt;" style="rounded=0;whiteSpace=wrap;html=1;fillStyle=hatch;fillColor=#B3B3B3;" parent="1" vertex="1">
          <mxGeometry x="120" y="520" width="40" height="40" as="geometry" />
        </mxCell>
        <mxCell id="nkVPSl8-scFeGB_LwQ4a-25" value="" style="rounded=0;whiteSpace=wrap;html=1;fillColor=#fff2cc;strokeColor=#d6b656;" parent="1" vertex="1">
          <mxGeometry x="120" y="440" width="320" height="40" as="geometry" />
        </mxCell>
        <mxCell id="nkVPSl8-scFeGB_LwQ4a-26" value="&lt;font color=&quot;#808080&quot;&gt;int a;&lt;/font&gt;" style="rounded=0;whiteSpace=wrap;html=1;fillStyle=hatch;fillColor=#B3B3B3;" parent="1" vertex="1">
          <mxGeometry x="120" y="440" width="160" height="40" as="geometry" />
        </mxCell>
        <mxCell id="nkVPSl8-scFeGB_LwQ4a-27" value="double b;" style="rounded=0;whiteSpace=wrap;html=1;fillStyle=hatch;fillColor=#B3B3B3;" parent="1" vertex="1">
          <mxGeometry x="120" y="560" width="320" height="40" as="geometry" />
        </mxCell>
        <mxCell id="nkVPSl8-scFeGB_LwQ4a-28" value="" style="rounded=0;whiteSpace=wrap;html=1;" parent="1" vertex="1">
          <mxGeometry x="120" y="600" width="320" height="40" as="geometry" />
        </mxCell>
        <mxCell id="nkVPSl8-scFeGB_LwQ4a-29" value="char c;" style="rounded=0;whiteSpace=wrap;html=1;fillStyle=hatch;fillColor=#B3B3B3;" parent="1" vertex="1">
          <mxGeometry x="120" y="600" width="40" height="40" as="geometry" />
        </mxCell>
        <mxCell id="nkVPSl8-scFeGB_LwQ4a-30" value="" style="rounded=0;whiteSpace=wrap;html=1;fillColor=#fff2cc;strokeColor=#d6b656;" parent="1" vertex="1">
          <mxGeometry x="120" y="480" width="320" height="40" as="geometry" />
        </mxCell>
        <mxCell id="nkVPSl8-scFeGB_LwQ4a-32" value="&lt;font color=&quot;#808080&quot;&gt;double b;&lt;/font&gt;" style="rounded=0;whiteSpace=wrap;html=1;fillStyle=hatch;fillColor=#B3B3B3;" parent="1" vertex="1">
          <mxGeometry x="120" y="480" width="320" height="40" as="geometry" />
        </mxCell>
        <mxCell id="nkVPSl8-scFeGB_LwQ4a-33" value="24" style="text;html=1;strokeColor=none;fillColor=none;align=center;verticalAlign=middle;whiteSpace=wrap;rounded=0;" parent="1" vertex="1">
          <mxGeometry x="80" y="520" width="40" height="40" as="geometry" />
        </mxCell>
        <mxCell id="nkVPSl8-scFeGB_LwQ4a-34" value="32" style="text;html=1;strokeColor=none;fillColor=none;align=center;verticalAlign=middle;whiteSpace=wrap;rounded=0;" parent="1" vertex="1">
          <mxGeometry x="80" y="560" width="40" height="40" as="geometry" />
        </mxCell>
        <mxCell id="nkVPSl8-scFeGB_LwQ4a-35" value="40" style="text;html=1;strokeColor=none;fillColor=none;align=center;verticalAlign=middle;whiteSpace=wrap;rounded=0;" parent="1" vertex="1">
          <mxGeometry x="80" y="600" width="40" height="40" as="geometry" />
        </mxCell>
        <mxCell id="nkVPSl8-scFeGB_LwQ4a-36" value="" style="shape=curlyBracket;whiteSpace=wrap;html=1;rounded=1;flipH=1;labelPosition=right;verticalLabelPosition=middle;align=left;verticalAlign=middle;strokeColor=#FF0000;" parent="1" vertex="1">
          <mxGeometry x="440" y="440" width="20" height="120" as="geometry" />
        </mxCell>
        <mxCell id="nkVPSl8-scFeGB_LwQ4a-40" value="&lt;font style=&quot;font-size: 12px;&quot;&gt;TestInner d;&lt;/font&gt;" style="text;html=1;strokeColor=none;fillColor=none;align=center;verticalAlign=middle;whiteSpace=wrap;rounded=0;fontStyle=0" parent="1" vertex="1">
          <mxGeometry x="460" y="480" width="90" height="40" as="geometry" />
        </mxCell>
        <mxCell id="UlsAp4UVhtbA4kbVIzd1-2" value="int a;" style="rounded=0;whiteSpace=wrap;html=1;fillColor=#dae8fc;strokeColor=#6c8ebf;fillStyle=auto;" vertex="1" parent="1">
          <mxGeometry x="120" y="720" width="160" height="40" as="geometry" />
        </mxCell>
        <mxCell id="UlsAp4UVhtbA4kbVIzd1-3" value="" style="rounded=0;whiteSpace=wrap;html=1;fillColor=#dae8fc;strokeColor=#6c8ebf;fillStyle=auto;" vertex="1" parent="1">
          <mxGeometry x="120" y="760" width="160" height="40" as="geometry" />
        </mxCell>
        <mxCell id="UlsAp4UVhtbA4kbVIzd1-4" value="" style="rounded=0;whiteSpace=wrap;html=1;fillColor=#dae8fc;strokeColor=#6c8ebf;fillStyle=auto;" vertex="1" parent="1">
          <mxGeometry x="120" y="800" width="160" height="40" as="geometry" />
        </mxCell>
        <mxCell id="UlsAp4UVhtbA4kbVIzd1-5" value="" style="rounded=0;whiteSpace=wrap;html=1;fillColor=#dae8fc;strokeColor=#6c8ebf;fillStyle=auto;" vertex="1" parent="1">
          <mxGeometry x="120" y="840" width="160" height="40" as="geometry" />
        </mxCell>
        <mxCell id="UlsAp4UVhtbA4kbVIzd1-6" value="" style="rounded=0;whiteSpace=wrap;html=1;" vertex="1" parent="1">
          <mxGeometry x="120" y="880" width="160" height="40" as="geometry" />
        </mxCell>
        <mxCell id="UlsAp4UVhtbA4kbVIzd1-7" value="" style="rounded=0;whiteSpace=wrap;html=1;" vertex="1" parent="1">
          <mxGeometry x="120" y="920" width="160" height="40" as="geometry" />
        </mxCell>
        <mxCell id="UlsAp4UVhtbA4kbVIzd1-8" value="" style="rounded=0;whiteSpace=wrap;html=1;" vertex="1" parent="1">
          <mxGeometry x="120" y="960" width="160" height="40" as="geometry" />
        </mxCell>
        <mxCell id="UlsAp4UVhtbA4kbVIzd1-9" value="" style="rounded=0;whiteSpace=wrap;html=1;" vertex="1" parent="1">
          <mxGeometry x="120" y="1000" width="160" height="40" as="geometry" />
        </mxCell>
        <mxCell id="UlsAp4UVhtbA4kbVIzd1-10" value="double b;" style="rounded=0;whiteSpace=wrap;html=1;fillColor=#d5e8d4;strokeColor=#82b366;" vertex="1" parent="1">
          <mxGeometry x="120" y="1040" width="160" height="40" as="geometry" />
        </mxCell>
        <mxCell id="UlsAp4UVhtbA4kbVIzd1-11" value="" style="rounded=0;whiteSpace=wrap;html=1;fillColor=#d5e8d4;strokeColor=#82b366;" vertex="1" parent="1">
          <mxGeometry x="120" y="1080" width="160" height="40" as="geometry" />
        </mxCell>
        <mxCell id="UlsAp4UVhtbA4kbVIzd1-12" value="" style="rounded=0;whiteSpace=wrap;html=1;fillColor=#d5e8d4;strokeColor=#82b366;" vertex="1" parent="1">
          <mxGeometry x="120" y="1120" width="160" height="40" as="geometry" />
        </mxCell>
        <mxCell id="UlsAp4UVhtbA4kbVIzd1-13" value="" style="rounded=0;whiteSpace=wrap;html=1;fillColor=#d5e8d4;strokeColor=#82b366;" vertex="1" parent="1">
          <mxGeometry x="120" y="1160" width="160" height="40" as="geometry" />
        </mxCell>
        <mxCell id="UlsAp4UVhtbA4kbVIzd1-14" value="" style="rounded=0;whiteSpace=wrap;html=1;fillColor=#d5e8d4;strokeColor=#82b366;" vertex="1" parent="1">
          <mxGeometry x="120" y="1200" width="160" height="40" as="geometry" />
        </mxCell>
        <mxCell id="UlsAp4UVhtbA4kbVIzd1-15" value="" style="rounded=0;whiteSpace=wrap;html=1;fillColor=#d5e8d4;strokeColor=#82b366;" vertex="1" parent="1">
          <mxGeometry x="120" y="1240" width="160" height="40" as="geometry" />
        </mxCell>
        <mxCell id="UlsAp4UVhtbA4kbVIzd1-16" value="" style="rounded=0;whiteSpace=wrap;html=1;fillColor=#d5e8d4;strokeColor=#82b366;" vertex="1" parent="1">
          <mxGeometry x="120" y="1280" width="160" height="40" as="geometry" />
        </mxCell>
        <mxCell id="UlsAp4UVhtbA4kbVIzd1-17" value="" style="rounded=0;whiteSpace=wrap;html=1;fillColor=#d5e8d4;strokeColor=#82b366;" vertex="1" parent="1">
          <mxGeometry x="120" y="1320" width="160" height="40" as="geometry" />
        </mxCell>
        <mxCell id="UlsAp4UVhtbA4kbVIzd1-18" value="char c;" style="rounded=0;whiteSpace=wrap;html=1;fillColor=#ffe6cc;strokeColor=#d79b00;" vertex="1" parent="1">
          <mxGeometry x="120" y="1360" width="160" height="40" as="geometry" />
        </mxCell>
        <mxCell id="UlsAp4UVhtbA4kbVIzd1-19" value="" style="rounded=0;whiteSpace=wrap;html=1;" vertex="1" parent="1">
          <mxGeometry x="120" y="1400" width="160" height="40" as="geometry" />
        </mxCell>
        <mxCell id="UlsAp4UVhtbA4kbVIzd1-20" value="" style="rounded=0;whiteSpace=wrap;html=1;" vertex="1" parent="1">
          <mxGeometry x="120" y="1440" width="160" height="40" as="geometry" />
        </mxCell>
        <mxCell id="UlsAp4UVhtbA4kbVIzd1-21" value="" style="rounded=0;whiteSpace=wrap;html=1;" vertex="1" parent="1">
          <mxGeometry x="120" y="1480" width="160" height="40" as="geometry" />
        </mxCell>
        <mxCell id="UlsAp4UVhtbA4kbVIzd1-22" value="" style="rounded=0;whiteSpace=wrap;html=1;" vertex="1" parent="1">
          <mxGeometry x="120" y="1520" width="160" height="40" as="geometry" />
        </mxCell>
        <mxCell id="UlsAp4UVhtbA4kbVIzd1-23" value="" style="rounded=0;whiteSpace=wrap;html=1;" vertex="1" parent="1">
          <mxGeometry x="120" y="1560" width="160" height="40" as="geometry" />
        </mxCell>
        <mxCell id="UlsAp4UVhtbA4kbVIzd1-24" value="" style="rounded=0;whiteSpace=wrap;html=1;" vertex="1" parent="1">
          <mxGeometry x="120" y="1600" width="160" height="40" as="geometry" />
        </mxCell>
        <mxCell id="UlsAp4UVhtbA4kbVIzd1-25" value="" style="rounded=0;whiteSpace=wrap;html=1;" vertex="1" parent="1">
          <mxGeometry x="120" y="1640" width="160" height="40" as="geometry" />
        </mxCell>
        <mxCell id="UlsAp4UVhtbA4kbVIzd1-26" value="0" style="text;html=1;strokeColor=none;fillColor=none;align=center;verticalAlign=middle;whiteSpace=wrap;rounded=0;" vertex="1" parent="1">
          <mxGeometry x="80" y="720" width="40" height="40" as="geometry" />
        </mxCell>
        <mxCell id="UlsAp4UVhtbA4kbVIzd1-27" value="8" style="text;html=1;strokeColor=none;fillColor=none;align=center;verticalAlign=middle;whiteSpace=wrap;rounded=0;" vertex="1" parent="1">
          <mxGeometry x="80" y="1040" width="40" height="40" as="geometry" />
        </mxCell>
        <mxCell id="UlsAp4UVhtbA4kbVIzd1-28" value="16" style="text;html=1;strokeColor=none;fillColor=none;align=center;verticalAlign=middle;whiteSpace=wrap;rounded=0;" vertex="1" parent="1">
          <mxGeometry x="80" y="1360" width="40" height="40" as="geometry" />
        </mxCell>
      </root>
    </mxGraphModel>
  </diagram>
</mxfile>
